# xmcd
# 
# Track frame offsets:
#     150
#     13037
#     25100
#     33007
#     42345
#     54632
#     67107
#     78972
#     91940
#     103520
#     116547
#     127705
#     140407
#     153985
#     166402
#     176392
#     188735
#     200925
# 
# Disc length: 2837
# 
# Revision: 6
# Processed by: cddbd v1.5.2PL0 Copyright (c) Steve Scherf et al.
# Submitted via: fre:ac v1.0.31
# 
DISCID=e40b1312
DTITLE=Columbia Blues - Big MamaThornton Hound Dog - The Peacock Recordings [MCAD-10668]
DYEAR=1992
DGENRE=Blues
TTITLE0=Hound Dog
TTITLE1=My Man Called Me
TTITLE2=I Smell A Rat
TTITLE3=They Call Me Big Mama
TTITLE4=You Don't Move Me No More
TTITLE5=Let Your Tears Fall Baby
TTITLE6=Rock-A-Bye Baby
TTITLE7=Yes, Baby (with Johnny Ace)
TTITLE8=How Come
TTITLE9=Nightmare
TTITLE10=Stop A-Hoppin' On Me
TTITLE11=Just Like A Dog, Barking Up The Wrong Tree
TTITLE12=Walking Blues
TTITLE13=The Big Change
TTITLE14=Hard Times
TTITLE15=Laugh, Laugh, Laugh
TTITLE16=The Fish
TTITLE17=I've Searched The Whole World Over (with false start)
EXTD=
EXTT0=
EXTT1=
EXTT2=
EXTT3=
EXTT4=
EXTT5=
EXTT6=
EXTT7=
EXTT8=
EXTT9=
EXTT10=
EXTT11=
EXTT12=
EXTT13=
EXTT14=
EXTT15=
EXTT16=
EXTT17=
PLAYORDER=
